<svg width="56" height="56" viewBox="0 0 56 56" fill="none" xmlns="http://www.w3.org/2000/svg">
<rect width="56" height="56" rx="28" fill="#F8E122"/>
<path d="M19.9708 25.4503L22.4083 26.4815C22.6999 25.8982 23.002 25.3357 23.3145 24.794C23.627 24.2523 23.9708 23.7107 24.3458 23.169L22.5958 22.8253L19.9708 25.4503ZM24.4083 28.044L27.9708 31.5753C28.8458 31.2419 29.7833 30.7315 30.7833 30.044C31.7833 29.3565 32.7208 28.5753 33.5958 27.7003C35.0541 26.2419 36.1947 24.6221 37.0176 22.8409C37.8406 21.0596 38.1999 19.419 38.0958 17.919C36.5958 17.8148 34.9499 18.1742 33.1583 18.9971C31.3666 19.8201 29.7416 20.9607 28.2833 22.419C27.4083 23.294 26.627 24.2315 25.9395 25.2315C25.252 26.2315 24.7416 27.169 24.4083 28.044ZM29.9708 26.0128C29.4916 25.5336 29.252 24.9451 29.252 24.2471C29.252 23.5492 29.4916 22.9607 29.9708 22.4815C30.4499 22.0023 31.0437 21.7628 31.752 21.7628C32.4603 21.7628 33.0541 22.0023 33.5333 22.4815C34.0124 22.9607 34.252 23.5492 34.252 24.2471C34.252 24.9451 34.0124 25.5336 33.5333 26.0128C33.0541 26.4919 32.4603 26.7315 31.752 26.7315C31.0437 26.7315 30.4499 26.4919 29.9708 26.0128ZM30.5645 36.044L33.1895 33.419L32.8458 31.669C32.3041 32.044 31.7624 32.3826 31.2208 32.6846C30.6791 32.9867 30.1166 33.2836 29.5333 33.5753L30.5645 36.044ZM40.3458 15.6378C40.7416 18.1586 40.4968 20.6117 39.6114 22.9971C38.726 25.3826 37.1999 27.6586 35.0333 29.8253L35.6583 32.919C35.7416 33.3357 35.7208 33.7419 35.5958 34.1378C35.4708 34.5336 35.2624 34.8773 34.9708 35.169L29.7208 40.419L27.0958 34.2628L21.752 28.919L15.5958 26.294L20.8145 21.044C21.1062 20.7523 21.4551 20.544 21.8614 20.419C22.2676 20.294 22.6791 20.2732 23.0958 20.3565L26.1895 20.9815C28.3562 18.8148 30.627 17.2836 33.002 16.3878C35.377 15.4919 37.8249 15.2419 40.3458 15.6378ZM17.8145 32.8878C18.5437 32.1586 19.4343 31.7888 20.4864 31.7784C21.5385 31.768 22.4291 32.1273 23.1583 32.8565C23.8874 33.5857 24.2468 34.4763 24.2364 35.5284C24.226 36.5805 23.8562 37.4711 23.127 38.2003C22.6062 38.7211 21.7364 39.169 20.5176 39.544C19.2989 39.919 17.6166 40.2523 15.4708 40.544C15.7624 38.3982 16.0958 36.7159 16.4708 35.4971C16.8458 34.2784 17.2937 33.4086 17.8145 32.8878ZM19.5958 34.6378C19.3874 34.8461 19.1791 35.2263 18.9708 35.7784C18.7624 36.3305 18.6166 36.8878 18.5333 37.4503C19.0958 37.3669 19.6531 37.2263 20.2051 37.0284C20.7572 36.8305 21.1374 36.6273 21.3458 36.419C21.5958 36.169 21.7312 35.8669 21.752 35.5128C21.7728 35.1586 21.6583 34.8565 21.4083 34.6065C21.1583 34.3565 20.8562 34.2367 20.502 34.2471C20.1478 34.2576 19.8458 34.3878 19.5958 34.6378Z" fill="#6E6300"/>
</svg>
