<svg width="64" height="64" viewBox="0 0 64 64" fill="none" xmlns="http://www.w3.org/2000/svg">
<rect width="64" height="64" rx="32" fill="#F8E122" fill-opacity="0.3"/>
<path d="M29.1875 29.8125C27.8125 29.8125 26.6354 29.3229 25.6562 28.3438C24.6771 27.3646 24.1875 26.1875 24.1875 24.8125C24.1875 23.4375 24.6771 22.2604 25.6562 21.2812C26.6354 20.3021 27.8125 19.8125 29.1875 19.8125C30.5625 19.8125 31.7396 20.3021 32.7188 21.2812C33.6979 22.2604 34.1875 23.4375 34.1875 24.8125C34.1875 26.1875 33.6979 27.3646 32.7188 28.3438C31.7396 29.3229 30.5625 29.8125 29.1875 29.8125ZM29.1875 27.3125C29.875 27.3125 30.4635 27.0677 30.9531 26.5781C31.4427 26.0885 31.6875 25.5 31.6875 24.8125C31.6875 24.125 31.4427 23.5365 30.9531 23.0469C30.4635 22.5573 29.875 22.3125 29.1875 22.3125C28.5 22.3125 27.9115 22.5573 27.4219 23.0469C26.9323 23.5365 26.6875 24.125 26.6875 24.8125C26.6875 25.5 26.9323 26.0885 27.4219 26.5781C27.9115 27.0677 28.5 27.3125 29.1875 27.3125ZM43.0625 44.1875L39.0625 40.1875C38.625 40.4375 38.1562 40.6458 37.6562 40.8125C37.1562 40.9792 36.625 41.0625 36.0625 41.0625C34.5 41.0625 33.1719 40.5156 32.0781 39.4219C30.9844 38.3281 30.4375 37 30.4375 35.4375C30.4375 33.875 30.9844 32.5469 32.0781 31.4531C33.1719 30.3594 34.5 29.8125 36.0625 29.8125C37.625 29.8125 38.9531 30.3594 40.0469 31.4531C41.1406 32.5469 41.6875 33.875 41.6875 35.4375C41.6875 36 41.6042 36.5312 41.4375 37.0312C41.2708 37.5312 41.0625 38 40.8125 38.4375L44.8125 42.4375L43.0625 44.1875ZM36.0625 38.5625C36.9375 38.5625 37.6771 38.2604 38.2812 37.6562C38.8854 37.0521 39.1875 36.3125 39.1875 35.4375C39.1875 34.5625 38.8854 33.8229 38.2812 33.2188C37.6771 32.6146 36.9375 32.3125 36.0625 32.3125C35.1875 32.3125 34.4479 32.6146 33.8438 33.2188C33.2396 33.8229 32.9375 34.5625 32.9375 35.4375C32.9375 36.3125 33.2396 37.0521 33.8438 37.6562C34.4479 38.2604 35.1875 38.5625 36.0625 38.5625ZM19.1875 39.8125V36.3438C19.1875 35.6354 19.3646 34.9792 19.7188 34.375C20.0729 33.7708 20.5625 33.3125 21.1875 33C22.25 32.4583 23.4479 32 24.7812 31.625C26.1146 31.25 27.5938 31.0625 29.2188 31.0625C28.9688 31.4375 28.7552 31.8385 28.5781 32.2656C28.401 32.6927 28.2604 33.1354 28.1562 33.5938C26.9062 33.6979 25.7917 33.9115 24.8125 34.2344C23.8333 34.5573 23.0104 34.8958 22.3438 35.25C22.1354 35.3542 21.974 35.5052 21.8594 35.7031C21.7448 35.901 21.6875 36.1146 21.6875 36.3438V37.3125H28.1562C28.2604 37.7708 28.401 38.2083 28.5781 38.625C28.7552 39.0417 28.9688 39.4375 29.2188 39.8125H19.1875Z" fill="#6A5F00"/>
</svg>
