<svg width="64" height="64" viewBox="0 0 64 64" fill="none" xmlns="http://www.w3.org/2000/svg">
<rect width="64" height="64" rx="12" fill="#E3E2E0"/>
<path d="M29.0938 33.5L30.1875 29.9375L27.3125 27.625H30.875L32 24.125L33.125 27.625H36.6875L33.7812 29.9375L34.875 33.5L32 31.2812L29.0938 33.5ZM24.5 45.125V35.4688C23.7083 34.5938 23.0938 33.5938 22.6562 32.4688C22.2188 31.3438 22 30.1458 22 28.875C22 26.0833 22.9688 23.7188 24.9062 21.7812C26.8438 19.8438 29.2083 18.875 32 18.875C34.7917 18.875 37.1562 19.8438 39.0938 21.7812C41.0312 23.7188 42 26.0833 42 28.875C42 30.1458 41.7812 31.3438 41.3438 32.4688C40.9062 33.5938 40.2917 34.5938 39.5 35.4688V45.125L32 42.625L24.5 45.125ZM32 36.375C34.0833 36.375 35.8542 35.6458 37.3125 34.1875C38.7708 32.7292 39.5 30.9583 39.5 28.875C39.5 26.7917 38.7708 25.0208 37.3125 23.5625C35.8542 22.1042 34.0833 21.375 32 21.375C29.9167 21.375 28.1458 22.1042 26.6875 23.5625C25.2292 25.0208 24.5 26.7917 24.5 28.875C24.5 30.9583 25.2292 32.7292 26.6875 34.1875C28.1458 35.6458 29.9167 36.375 32 36.375ZM27 41.4062L32 40.125L37 41.4062V37.5312C36.2708 37.9479 35.4844 38.276 34.6406 38.5156C33.7969 38.7552 32.9167 38.875 32 38.875C31.0833 38.875 30.2031 38.7552 29.3594 38.5156C28.5156 38.276 27.7292 37.9479 27 37.5312V41.4062Z" fill="#485422"/>
</svg>
