<svg width="64" height="64" viewBox="0 0 64 64" fill="none" xmlns="http://www.w3.org/2000/svg">
<rect width="64" height="64" rx="32" fill="#6A5F00" fill-opacity="0.1"/>
<path d="M18.25 42V37C18.25 36.2917 18.4948 35.6979 18.9844 35.2188C19.474 34.7396 20.0625 34.5 20.75 34.5H24.8438C25.2604 34.5 25.6562 34.6042 26.0312 34.8125C26.4062 35.0208 26.7083 35.3021 26.9375 35.6562C27.5417 36.4688 28.2865 37.1042 29.1719 37.5625C30.0573 38.0208 31 38.25 32 38.25C33.0208 38.25 33.974 38.0208 34.8594 37.5625C35.7448 37.1042 36.4792 36.4688 37.0625 35.6562C37.3333 35.3021 37.651 35.0208 38.0156 34.8125C38.3802 34.6042 38.7604 34.5 39.1562 34.5H43.25C43.9583 34.5 44.5521 34.7396 45.0312 35.2188C45.5104 35.6979 45.75 36.2917 45.75 37V42H37V39.1562C36.2708 39.6771 35.4844 40.0729 34.6406 40.3438C33.7969 40.6146 32.9167 40.75 32 40.75C31.1042 40.75 30.2292 40.6094 29.375 40.3281C28.5208 40.0469 27.7292 39.6458 27 39.125V42H18.25ZM32 37C31.2083 37 30.4583 36.8177 29.75 36.4531C29.0417 36.0885 28.4479 35.5833 27.9688 34.9375C27.6146 34.4167 27.1719 34.0052 26.6406 33.7031C26.1094 33.401 25.5312 33.25 24.9062 33.25C25.3646 32.4792 26.3333 31.8698 27.8125 31.4219C29.2917 30.974 30.6875 30.75 32 30.75C33.3125 30.75 34.7083 30.974 36.1875 31.4219C37.6667 31.8698 38.6354 32.4792 39.0938 33.25C38.4896 33.25 37.9167 33.401 37.375 33.7031C36.8333 34.0052 36.3854 34.4167 36.0312 34.9375C35.5729 35.6042 34.9896 36.1146 34.2812 36.4688C33.5729 36.8229 32.8125 37 32 37ZM22 33.25C20.9583 33.25 20.0729 32.8854 19.3438 32.1562C18.6146 31.4271 18.25 30.5417 18.25 29.5C18.25 28.4375 18.6146 27.5469 19.3438 26.8281C20.0729 26.1094 20.9583 25.75 22 25.75C23.0625 25.75 23.9531 26.1094 24.6719 26.8281C25.3906 27.5469 25.75 28.4375 25.75 29.5C25.75 30.5417 25.3906 31.4271 24.6719 32.1562C23.9531 32.8854 23.0625 33.25 22 33.25ZM42 33.25C40.9583 33.25 40.0729 32.8854 39.3438 32.1562C38.6146 31.4271 38.25 30.5417 38.25 29.5C38.25 28.4375 38.6146 27.5469 39.3438 26.8281C40.0729 26.1094 40.9583 25.75 42 25.75C43.0625 25.75 43.9531 26.1094 44.6719 26.8281C45.3906 27.5469 45.75 28.4375 45.75 29.5C45.75 30.5417 45.3906 31.4271 44.6719 32.1562C43.9531 32.8854 43.0625 33.25 42 33.25ZM32 29.5C30.9583 29.5 30.0729 29.1354 29.3438 28.4062C28.6146 27.6771 28.25 26.7917 28.25 25.75C28.25 24.6875 28.6146 23.7969 29.3438 23.0781C30.0729 22.3594 30.9583 22 32 22C33.0625 22 33.9531 22.3594 34.6719 23.0781C35.3906 23.7969 35.75 24.6875 35.75 25.75C35.75 26.7917 35.3906 27.6771 34.6719 28.4062C33.9531 29.1354 33.0625 29.5 32 29.5Z" fill="#6A5F00"/>
</svg>
